<?xml version="1.0" standalone="no"?>
<!DOCTYPE svg PUBLIC "-//W3C//DTD SVG 20010904//EN"
 "http://www.w3.org/TR/2001/REC-SVG-20010904/DTD/svg10.dtd">
<svg version="1.0" xmlns="http://www.w3.org/2000/svg"
 width="1300.000000pt" height="395.000000pt" viewBox="0 0 1300.000000 395.000000"
 preserveAspectRatio="xMidYMid meet">

<g transform="translate(0.000000,395.000000) scale(0.100000,-0.100000)"
fill="#000000" stroke="none">
<path d="M7915 3365 c-205 -42 -341 -170 -391 -367 -22 -85 -14 -259 15 -342
73 -207 259 -325 511 -326 335 0 537 178 557 490 16 263 -126 470 -368 536
-80 22 -241 26 -324 9z m294 -244 c45 -23 98 -81 118 -129 21 -50 27 -158 14
-224 -18 -85 -63 -146 -135 -183 -54 -27 -69 -30 -150 -30 -78 1 -98 4 -141
27 -102 54 -147 133 -149 263 -1 136 47 230 140 275 85 42 222 42 303 1z"/>
<path d="M11053 3365 c-199 -36 -305 -144 -307 -313 -1 -96 21 -158 73 -205
59 -54 129 -74 331 -97 231 -26 270 -41 270 -102 0 -64 -77 -100 -211 -100
-127 0 -204 31 -229 92 l-12 30 -120 0 -120 0 7 -46 c29 -193 188 -294 465
-294 222 0 378 70 436 194 35 75 34 192 -2 264 -52 105 -117 133 -376 166
-205 26 -251 39 -270 81 -31 68 54 120 197 120 110 0 176 -26 203 -81 l16 -34
124 0 124 0 -7 38 c-40 221 -289 342 -592 287z"/>
<path d="M560 3186 l-265 -162 -3 -1242 c-1 -683 -1 -1242 1 -1242 2 0 66 38
143 84 l139 84 5 -137 c6 -149 15 -178 70 -224 17 -15 47 -31 68 -37 25 -6
517 -10 1475 -10 l1437 0 0 1245 0 1245 -125 0 -125 0 0 209 c0 124 -4 221
-11 238 -15 40 -48 73 -94 94 -38 18 -94 19 -1245 18 l-1205 -1 -265 -162z
m1764 -397 c4 -4 416 -1365 416 -1375 0 -2 -79 -4 -175 -4 l-174 0 -20 68
c-11 37 -30 104 -43 150 l-23 82 -207 0 -207 0 -9 -32 c-5 -18 -22 -86 -38
-150 l-28 -118 -174 0 c-160 0 -173 1 -168 18 3 9 91 318 196 687 105 368 195
672 200 675 10 6 448 6 454 -1z"/>
<path d="M2091 2550 c-1 -3 -30 -131 -66 -283 -36 -153 -65 -282 -65 -287 0
-6 53 -10 135 -10 134 0 135 0 134 23 0 22 -136 567 -138 557z"/>
<path d="M4691 3157 c-40 -105 -123 -320 -183 -477 -61 -157 -113 -295 -115
-308 l-5 -23 128 3 128 3 18 50 c10 28 25 69 34 93 l16 42 214 0 c163 0 216
-3 218 -12 3 -7 18 -49 34 -93 l29 -80 132 -3 c87 -2 131 1 131 8 0 9 -46 130
-316 823 l-66 167 -161 0 -162 0 -74 -193z m304 -200 c33 -94 61 -180 63 -189
3 -16 -9 -18 -132 -18 -75 0 -136 2 -136 3 0 5 95 277 117 335 9 23 18 42 22
42 3 0 33 -78 66 -173z"/>
<path d="M5512 2978 l3 -373 28 -56 c33 -69 100 -132 172 -165 156 -72 380
-71 530 0 84 40 139 92 174 166 l26 55 3 373 3 372 -126 0 -125 0 0 -323 c0
-179 -4 -337 -10 -356 -5 -19 -20 -45 -32 -59 -43 -45 -77 -56 -173 -57 -78 0
-96 3 -134 25 -86 48 -86 48 -89 433 l-3 337 -125 0 -125 0 3 -372z"/>
<path d="M6570 3245 l0 -105 160 0 160 0 0 -395 0 -395 125 0 125 0 2 393 3
392 158 5 159 5 1 103 2 102 -447 0 -448 0 0 -105z"/>
<path d="M8750 2851 l0 -501 254 0 c366 0 471 19 553 101 83 82 107 173 107
404 0 248 -34 352 -138 422 -91 62 -118 66 -463 71 l-313 4 0 -501z m572 266
c25 -11 44 -29 60 -59 21 -39 23 -55 23 -193 0 -140 -2 -153 -25 -200 -19 -38
-35 -55 -70 -72 -39 -20 -59 -23 -177 -23 l-133 0 0 278 c0 153 3 282 8 286
13 14 274 0 314 -17z"/>
<path d="M9812 2853 l3 -498 398 -3 397 -2 0 110 0 110 -272 2 -273 3 0 85 0
85 223 3 222 2 0 110 0 110 -225 0 -226 0 3 83 3 82 273 3 272 2 0 105 0 105
-400 0 -400 0 2 -497z"/>
<path d="M11800 2850 l0 -500 125 0 125 0 0 186 c0 102 4 184 8 182 5 -1 83
-85 173 -185 l164 -183 159 0 159 0 -19 23 c-16 19 -268 287 -401 427 l-42 45
230 250 230 250 -148 3 -148 3 -45 -50 c-25 -27 -106 -117 -180 -201 l-135
-151 -3 200 -2 201 -125 0 -125 0 0 -500z"/>
<path d="M7740 1856 c-113 -33 -201 -111 -241 -214 -21 -51 -23 -78 -27 -262
-3 -137 0 -223 8 -260 26 -118 102 -210 209 -251 69 -27 196 -36 274 -19 62
13 197 75 197 91 0 15 -59 99 -70 99 -4 0 -30 -11 -57 -25 -67 -35 -154 -48
-223 -34 -43 9 -64 20 -96 53 -60 60 -66 91 -62 340 l3 211 28 48 c34 57 72
82 146 98 65 13 156 -5 219 -44 l39 -25 43 50 44 51 -25 20 c-13 11 -53 34
-88 50 -57 27 -77 31 -170 34 -67 1 -123 -2 -151 -11z"/>
<path d="M4685 1838 c-14 -42 -81 -257 -125 -403 -28 -93 -78 -256 -111 -362
-32 -105 -59 -196 -59 -202 0 -7 31 -11 88 -11 l88 0 12 48 c7 26 24 84 38
130 l25 82 172 -2 172 -3 40 -125 41 -125 93 -3 c74 -2 92 0 88 10 -6 18 -170
523 -249 773 l-64 200 -122 3 c-93 2 -123 -1 -127 -10z m188 -330 c32 -112 60
-213 64 -225 5 -23 5 -23 -126 -23 -72 0 -131 3 -131 7 0 18 124 443 129 443
3 0 32 -91 64 -202z"/>
<path d="M8485 1628 c-37 -123 -103 -340 -146 -483 -44 -143 -81 -266 -84
-273 -4 -10 15 -12 87 -10 l91 3 35 128 35 127 175 -2 175 -3 8 -25 c4 -14 22
-71 39 -127 l32 -103 89 0 c49 0 89 3 89 7 0 10 -65 216 -150 478 -38 116 -89
276 -115 358 l-46 147 -123 0 -122 0 -69 -222z m261 -146 l61 -217 -125 -3
c-69 -1 -127 0 -130 3 -3 3 20 98 52 213 69 249 65 237 73 228 4 -4 35 -105
69 -224z"/>
<path d="M9270 1355 l0 -497 213 4 c235 5 260 10 354 74 63 43 116 119 138
197 13 46 16 95 13 255 -3 193 -4 198 -32 260 -36 77 -104 142 -184 174 -52
21 -76 23 -279 26 l-223 3 0 -496z m378 354 c65 -14 125 -64 149 -127 15 -39
18 -76 18 -212 0 -189 -10 -239 -61 -299 -48 -55 -107 -76 -219 -76 l-90 0 -3
363 -2 362 79 0 c44 0 102 -5 129 -11z"/>
<path d="M6218 1716 c-3 -46 -9 -89 -12 -95 -4 -6 -32 -11 -62 -11 l-54 0 0
-65 0 -65 60 0 60 0 0 -250 c0 -276 3 -296 59 -343 18 -14 51 -32 74 -38 40
-11 195 -8 214 4 6 4 6 28 0 64 l-9 58 -65 0 c-104 0 -103 -2 -103 276 l0 229
80 0 80 0 0 65 0 64 -77 3 -78 3 -3 93 -3 92 -78 0 -78 0 -5 -84z"/>
<path d="M6853 1616 c-88 -29 -157 -89 -195 -171 -21 -46 -23 -64 -23 -210 0
-142 2 -165 21 -206 31 -67 87 -124 152 -156 52 -26 66 -28 172 -28 96 0 123
4 161 21 104 48 168 136 190 260 15 86 6 233 -18 298 -25 67 -92 139 -161 173
-49 24 -71 28 -157 30 -64 2 -115 -2 -142 -11z m222 -141 c66 -38 85 -93 85
-242 0 -128 -14 -176 -61 -220 -66 -60 -176 -58 -242 5 -39 38 -57 108 -57
226 1 140 22 192 95 237 45 28 127 25 180 -6z"/>
<path d="M5340 1323 c0 -180 4 -303 11 -328 15 -53 91 -129 144 -144 94 -26
197 -7 269 51 41 33 56 28 56 -19 0 -22 4 -23 75 -23 l75 0 0 375 0 375 -85 0
-85 0 0 -269 0 -269 -25 -30 c-33 -40 -101 -72 -152 -72 -51 0 -89 29 -103 78
-5 21 -10 150 -10 300 l0 262 -85 0 -85 0 0 -287z"/>
</g>
</svg>
